<svg width="663" height="225" viewBox="0 0 663 225" fill="none" xmlns="http://www.w3.org/2000/svg">
    <path d="M135.891 23.7393C86.5249 -26.2648 0 8.58657 0 78.7942C0 116.676 0 187.389 0 224.766C15.2698 224.766 30.029 224.766 45.2987 224.766C45.2987 187.389 45.2987 116.676 45.2987 78.7942C45.2987 60.6107 60.5685 45.4582 79.3948 45.4582C98.2268 45.4582 113.497 60.6107 113.497 78.7942C113.497 116.676 113.497 187.389 113.497 224.766C121.131 224.766 128.256 224.766 135.891 224.766C143.526 224.766 151.16 224.766 158.795 224.766C158.795 187.389 158.795 116.676 158.795 78.7942C158.795 60.6107 174.059 45.4582 192.891 45.4582C211.213 45.4582 226.483 60.6107 226.483 78.7942C226.483 116.676 226.483 187.389 226.483 224.766C241.752 224.766 257.022 224.766 271.781 224.766C271.781 187.389 271.781 116.676 271.781 78.7942C271.781 8.58657 185.767 -26.2648 135.891 23.7393ZM544.073 44.9532H645.862V0H544.073C506.409 0 475.87 30.3055 475.87 67.6822C475.87 100.513 499.285 127.788 530.84 133.849C534.913 134.86 539.49 134.86 544.073 134.86H593.95C606.673 134.86 616.854 144.961 616.854 157.589C616.854 169.711 606.673 179.813 593.95 179.813H492.155V224.766H593.95C631.614 224.766 662.147 194.965 662.147 157.589C662.147 124.757 638.738 97.4825 607.183 91.4214C603.11 90.4116 598.527 89.9062 593.95 89.9062H544.073C531.345 89.9062 521.169 79.8045 521.169 67.6822C521.169 55.055 531.345 44.9532 544.073 44.9532Z" fill="white"/>
    <path d="M434.061 0V123.697C434.061 154.872 408.31 179.511 376.376 179.511C344.958 179.511 319.201 154.872 319.201 123.697V0H273.363V123.697C273.363 179.511 319.717 224.766 376.376 224.766C433.551 224.766 479.905 179.511 479.905 123.697V0H434.061Z" fill="white"/>
</svg>
