<svg width="50" height="20" viewBox="0 0 50 20" fill="none" xmlns="http://www.w3.org/2000/svg">
    <path d="M18.8034 1.23959C17.093 -0.489134 14.0962 0.715746 14.0962 3.14294C14.0962 4.45262 14.0962 6.89726 14.0962 8.1895C14.625 8.1895 15.1362 8.1895 15.665 8.1895C15.665 6.89726 15.665 4.45262 15.665 3.14294C15.665 2.51438 16.1938 1.99047 16.8458 1.99047C17.4986 1.99047 18.0274 2.51438 18.0274 3.14294C18.0274 4.45262 18.0274 6.89726 18.0274 8.1895C18.2914 8.1895 18.5386 8.1895 18.8034 8.1895C19.0674 8.1895 19.3322 8.1895 19.5962 8.1895C19.5962 6.89726 19.5962 4.45262 19.5962 3.14294C19.5962 2.51438 20.125 1.99047 20.7778 1.99047C21.4122 1.99047 21.941 2.51438 21.941 3.14294C21.941 4.45262 21.941 6.89726 21.941 8.1895C22.4698 8.1895 22.9986 8.1895 23.5098 8.1895C23.5098 6.89726 23.5098 4.45262 23.5098 3.14294C23.5098 0.715746 20.5306 -0.489134 18.8034 1.23959ZM32.9418 1.97302H36.4674V0.418945H32.9418C31.637 0.418945 30.5794 1.46663 30.5794 2.75878C30.5794 3.89382 31.3906 4.83678 32.4834 5.0463C32.6242 5.08126 32.7834 5.08126 32.9418 5.08126H34.6698C35.1106 5.08126 35.4626 5.43046 35.4626 5.86702C35.4626 6.28614 35.1106 6.63534 34.6698 6.63534H31.1434V8.1895H34.6698C35.9738 8.1895 37.0322 7.15918 37.0322 5.86702C37.0322 4.73198 36.221 3.7891 35.1282 3.5795C34.9866 3.54462 34.8282 3.5271 34.6698 3.5271H32.9418C32.501 3.5271 32.1482 3.1779 32.1482 2.75878C32.1482 2.32231 32.501 1.97302 32.9418 1.97302Z" fill="black"/>
    <path d="M28.9724 0.400024V4.69562C28.9724 5.77834 28.0908 6.63395 26.9972 6.63395C25.922 6.63395 25.0405 5.77834 25.0405 4.69562V0.400024H23.4717V4.69562C23.4717 6.63394 25.0581 8.20555 26.9972 8.20555C28.9548 8.20555 30.5412 6.63394 30.5412 4.69562V0.400024H28.9724Z" fill="black"/>
    <path d="M1.92559 10.4472C1.34239 10.4472 0.779177 10.4472 0.196777 10.4472C0.196777 11.8899 0.196777 13.3134 0.196777 14.7369C0.196777 16.1604 0.196777 17.5839 0.196777 19.0266C0.779177 19.0266 1.34239 19.0266 1.92559 19.0266C1.92559 17.5839 1.92559 16.1604 1.92559 14.7369C1.92559 13.3134 3.09038 12.1592 4.52798 12.1592C4.52798 11.6014 4.52798 11.0242 4.52798 10.4472C3.51758 10.4472 2.72159 10.7165 1.92559 11.3128C1.92559 11.0242 1.92559 10.7357 1.92559 10.4472ZM14.7112 15.1601C14.7304 15.0254 14.7304 14.8716 14.7304 14.7369C14.7304 14.2945 14.6728 13.852 14.5368 13.4481C13.9928 11.7168 12.3416 10.4472 10.4192 10.4472C8.86559 10.4472 7.50638 11.2551 6.74878 12.467C6.55438 12.7748 6.39917 13.1018 6.28237 13.4481C6.22397 13.6597 6.18559 13.8713 6.14639 14.0829C6.10799 14.2945 6.08799 14.5061 6.08799 14.7369C6.08799 14.8716 6.10798 15.0254 6.10798 15.1601C6.32158 17.3338 8.16639 19.0266 10.4192 19.0266C11.9536 19.0266 13.3128 18.2187 14.0704 17.0068L12.4 16.3913C11.9344 16.9491 11.2152 17.2954 10.4192 17.2954C9.13759 17.2954 8.06958 16.372 7.85598 15.1601H14.7112ZM8.41919 13.0826C8.90399 12.5247 9.62319 12.1592 10.4192 12.1592C11.3712 12.1592 12.2056 12.6786 12.6528 13.4481H8.16638C8.24398 13.3326 8.32159 13.198 8.41919 13.0826ZM21.4704 18.1033C23.3736 20.027 26.656 18.6996 26.656 16.0065C26.656 14.583 26.656 13.1595 26.656 11.736C26.656 11.3128 26.656 10.8704 26.656 10.4472C26.0928 10.4472 25.5104 10.4472 24.9272 10.4472C24.9272 10.8704 24.9272 11.3128 24.9272 11.736C24.9272 13.1595 24.9272 14.583 24.9272 16.0065C24.9272 16.7182 24.3448 17.2954 23.6456 17.2954C22.9272 17.2954 22.3448 16.7182 22.3448 16.0065C22.3448 14.583 22.3448 13.1595 22.3448 11.736C22.3448 11.3128 22.3448 10.8704 22.3448 10.4472C21.7616 10.4472 21.1792 10.4472 20.616 10.4472C20.616 10.8704 20.616 11.3128 20.616 11.736C20.616 13.1595 20.616 14.583 20.616 16.0065C20.616 16.7182 20.0336 17.2954 19.3152 17.2954C18.596 17.2954 18.0136 16.7182 18.0136 16.0065C18.0136 14.583 18.0136 13.1595 18.0136 11.736C18.0136 11.3128 18.0136 10.8704 18.0136 10.4472C17.4312 10.4472 16.868 10.4472 16.2848 10.4472C16.2848 10.8704 16.2848 11.3128 16.2848 11.736C16.2848 13.1595 16.2848 14.583 16.2848 16.0065C16.2848 18.6996 19.5864 20.027 21.4704 18.1033ZM29.936 19.0266V10.4472H28.208V19.0266H29.936ZM33.2104 19.0074V14.2752C33.2104 13.0826 34.1816 12.14 35.3664 12.14C36.5704 12.14 37.5416 13.0826 37.5416 14.2752V19.0074H39.2696V14.2752C39.2696 12.14 37.5224 10.4087 35.3664 10.4087C33.2296 10.4087 31.4824 12.14 31.4824 14.2752V19.0074H33.2104ZM41.3104 16.6414C43.3496 20.681 49.5064 19.2382 49.5064 14.7369C49.5064 11.8899 49.5064 9.04288 49.5064 6.19592H47.7776C47.7776 7.88872 47.7776 9.6008 47.7776 11.2936C44.1264 8.60048 39.2712 12.6017 41.3104 16.6414ZM42.5928 14.7369C42.5928 13.3134 43.7384 12.1592 45.1752 12.1592C46.6128 12.1592 47.7776 13.3134 47.7776 14.7369C47.7776 16.1412 46.6128 17.2954 45.1752 17.2954C43.7384 17.2954 42.5928 16.1412 42.5928 14.7369Z" fill="black"/>
</svg>
